<svg xmlns="http://www.w3.org/2000/svg" width="10.01" height="11.44" viewBox="0 0 10.01 11.44">
  <path id="Icon_awesome-snowflake" data-name="Icon awesome-snowflake" d="M9.836,7.713l-.755-.436.581-.156A.346.346,0,0,0,9.905,6.7l-.089-.333a.346.346,0,0,0-.422-.244l-1.582.425L6.384,5.72,7.809,4.9l1.582.425a.346.346,0,0,0,.422-.244L9.9,4.743a.346.346,0,0,0-.244-.422l-.581-.156.755-.436a.347.347,0,0,0,.127-.471l-.346-.6a.347.347,0,0,0-.471-.127l-.755.436.156-.581A.346.346,0,0,0,8.3,1.964l-.333-.089a.346.346,0,0,0-.422.244L7.121,3.7l-1.4.809V2.777l1.2-1.2a.359.359,0,0,0,0-.5L6.666.82a.359.359,0,0,0-.5,0l-.442.44v-.9A.359.359,0,0,0,5.361,0H4.646a.359.359,0,0,0-.357.357v.9L3.848.82a.359.359,0,0,0-.5,0l-.255.252a.355.355,0,0,0,0,.5l1.2,1.2V4.509L2.885,3.7,2.461,2.118a.346.346,0,0,0-.422-.244l-.333.089a.346.346,0,0,0-.244.422l.156.581L.863,2.531a.345.345,0,0,0-.471.127l-.346.6a.345.345,0,0,0,.127.471l.755.436-.581.156A.346.346,0,0,0,.1,4.743l.089.333a.346.346,0,0,0,.422.244L2.195,4.9,3.62,5.72l-1.425.824L.613,6.12a.346.346,0,0,0-.422.244L.1,6.7a.346.346,0,0,0,.244.422l.581.156L.17,7.713a.347.347,0,0,0-.127.471l.346.6a.347.347,0,0,0,.471.127l.755-.436-.156.581a.346.346,0,0,0,.244.422l.333.089a.346.346,0,0,0,.422-.244l.425-1.582,1.4-.809V8.665l-1.2,1.2a.355.355,0,0,0,0,.5l.252.252a.359.359,0,0,0,.5,0l.44-.44v.9a.359.359,0,0,0,.357.357h.715a.359.359,0,0,0,.357-.357v-.9l.44.44a.359.359,0,0,0,.5,0l.252-.252a.359.359,0,0,0,0-.5l-1.193-1.2V6.931l1.4.809.425,1.582a.346.346,0,0,0,.422.244L8.3,9.476a.346.346,0,0,0,.244-.422l-.156-.581.755.436a.345.345,0,0,0,.471-.127l.346-.6a.341.341,0,0,0-.125-.469Z" transform="translate(0.002)" fill="#544f48"/>
</svg>
