<svg xmlns="http://www.w3.org/2000/svg" width="29.591" height="29.592" viewBox="0 0 29.591 29.592">
  <path id="blueprint-svgrepo-com" d="M28.248,0H1.347A1.345,1.345,0,0,0,0,1.345v26.9a1.345,1.345,0,0,0,1.345,1.345H16.591a1.345,1.345,0,0,0,0-2.69H2.692V15.244H8.969v4.932a1.345,1.345,0,1,0,2.69,0V7.622a1.345,1.345,0,0,0-2.69,0v4.932H2.692V2.69H16.143V9.416a1.345,1.345,0,0,0,1.345,1.345h6.277a1.345,1.345,0,0,0,0-2.69H18.833V2.69H26.9V18.831H17.488a1.345,1.345,0,0,0,0,2.69H26.9V26.9H24.662a1.345,1.345,0,0,0,0,2.69h3.587a1.345,1.345,0,0,0,1.345-1.345V1.345A1.345,1.345,0,0,0,28.248,0Z" transform="translate(-0.002)" fill="#073959"/>
</svg>
