<svg xmlns="http://www.w3.org/2000/svg" width="9.516" height="11.279" viewBox="0 0 9.516 11.279">
  <path id="Icon_metro-spoon-fork" data-name="Icon metro-spoon-fork" d="M5.649,1.928A2.311,2.311,0,0,0,3.535,4.4,2.421,2.421,0,0,0,5.162,6.8L4.811,12.5a.656.656,0,0,0,.662.7h.352a.656.656,0,0,0,.662-.7L6.137,6.8A2.421,2.421,0,0,0,7.764,4.4,2.311,2.311,0,0,0,5.649,1.928Zm7.108,0L12.17,5.453h-.441l-.294-3.525h-.294l-.294,3.525h-.441L9.82,1.928H9.526V6.51a.352.352,0,0,0,.352.352H10.8L10.451,12.5a.656.656,0,0,0,.662.7h.352a.656.656,0,0,0,.662-.7l-.346-5.641H12.7a.352.352,0,0,0,.352-.352V1.928Z" transform="translate(-3.535 -1.928)" fill="#544f48"/>
</svg>
