<svg xmlns="http://www.w3.org/2000/svg" width="28.191" height="32.218" viewBox="0 0 28.191 32.218">
  <path id="Icon_awesome-calendar" data-name="Icon awesome-calendar" d="M.755,12.082h26.68a.757.757,0,0,1,.755.755V29.2a3.021,3.021,0,0,1-3.02,3.02H3.02A3.021,3.021,0,0,1,0,29.2V12.837A.757.757,0,0,1,.755,12.082ZM28.191,9.313V7.048a3.021,3.021,0,0,0-3.02-3.02H22.15V.755A.757.757,0,0,0,21.395,0H18.878a.757.757,0,0,0-.755.755V4.027H10.068V.755A.757.757,0,0,0,9.313,0H6.8a.757.757,0,0,0-.755.755V4.027H3.02A3.021,3.021,0,0,0,0,7.048V9.313a.757.757,0,0,0,.755.755h26.68A.757.757,0,0,0,28.191,9.313Z" fill="#073959"/>
</svg>
