<svg xmlns="http://www.w3.org/2000/svg" width="29.533" height="18.794" viewBox="0 0 29.533 18.794">
  <path id="Icon_material-people" data-name="Icon material-people" d="M21.636,15.554a4.027,4.027,0,1,0-4.027-4.027A4.01,4.01,0,0,0,21.636,15.554Zm-10.739,0A4.027,4.027,0,1,0,6.87,11.527,4.01,4.01,0,0,0,10.9,15.554Zm0,2.685c-3.128,0-9.4,1.571-9.4,4.7v3.356H20.294V22.938C20.294,19.81,14.025,18.239,10.9,18.239Zm10.739,0c-.389,0-.832.027-1.3.067a5.665,5.665,0,0,1,2.645,4.631v3.356h8.054V22.938C31.033,19.81,24.764,18.239,21.636,18.239Z" transform="translate(-1.5 -7.5)" fill="#073959"/>
</svg>
