<svg xmlns="http://www.w3.org/2000/svg" width="17.099" height="14.962" viewBox="0 0 17.099 14.962">
  <path id="Icon_awesome-shower" data-name="Icon awesome-shower" d="M13.013,5.71,7.735,10.989a.8.8,0,0,1-1.133,0l-.378-.378a.8.8,0,0,1,0-1.133l0,0a3.748,3.748,0,0,1-.113-4.688,2.6,2.6,0,0,0-3.976,2.2V17.212H0V6.984A4.732,4.732,0,0,1,7.936,3.5a3.748,3.748,0,0,1,3.562.7l0,0a.8.8,0,0,1,1.133,0l.378.378A.8.8,0,0,1,13.013,5.71Zm-.189,2.418a.534.534,0,1,1-.534-.534A.534.534,0,0,1,12.824,8.128Zm1.069,0a.534.534,0,1,1,.534.534A.534.534,0,0,1,13.893,8.128Zm3.206,0a.534.534,0,1,1-.534-.534A.534.534,0,0,1,17.1,8.128ZM11.756,9.2a.534.534,0,1,1-.534-.534A.534.534,0,0,1,11.756,9.2Zm1.6-.534a.534.534,0,1,1-.534.534A.534.534,0,0,1,13.359,8.662ZM16.03,9.2a.534.534,0,1,1-.534-.534A.534.534,0,0,1,16.03,9.2Zm-5.343,1.069a.534.534,0,1,1-.534-.534A.534.534,0,0,1,10.687,10.265Zm1.069,0a.534.534,0,1,1,.534.534A.534.534,0,0,1,11.756,10.265Zm3.206,0a.534.534,0,1,1-.534-.534A.534.534,0,0,1,14.962,10.265Zm-4.275,1.069a.534.534,0,1,1,.534.534A.534.534,0,0,1,10.687,11.334Zm3.206,0a.534.534,0,1,1-.534-.534A.534.534,0,0,1,13.893,11.334ZM10.687,12.4a.534.534,0,1,1-.534-.534A.534.534,0,0,1,10.687,12.4Zm2.137,0a.534.534,0,1,1-.534-.534A.534.534,0,0,1,12.824,12.4Zm-1.069,1.069a.534.534,0,1,1-.534-.534A.534.534,0,0,1,11.756,13.471ZM10.687,14.54a.534.534,0,1,1-.534-.534A.534.534,0,0,1,10.687,14.54Z" transform="translate(0 -2.25)" fill="#544f48"/>
</svg>
