<svg xmlns="http://www.w3.org/2000/svg" width="14.962" height="10.473" viewBox="0 0 14.962 10.473">
  <path id="Icon_awesome-wifi" data-name="Icon awesome-wifi" d="M14.843,5.123a10.869,10.869,0,0,0-14.724,0,.372.372,0,0,0-.008.537l.8.794a.38.38,0,0,0,.524.009,8.969,8.969,0,0,1,12.092,0,.38.38,0,0,0,.524-.009l.8-.794A.372.372,0,0,0,14.843,5.123ZM7.481,9.731a1.5,1.5,0,1,0,1.5,1.5A1.5,1.5,0,0,0,7.481,9.731Zm4.738-1.954a7.177,7.177,0,0,0-9.476,0,.37.37,0,0,0-.013.541l.805.795a.382.382,0,0,0,.515.019,5.265,5.265,0,0,1,6.861,0,.381.381,0,0,0,.515-.019l.805-.795A.37.37,0,0,0,12.219,7.777Z" transform="translate(0 -2.25)" fill="#544f48"/>
</svg>
